<?xml version="1.0" encoding="iso-8859-1"?>
<!-- Generator: Adobe Illustrator 18.0.0, SVG Export Plug-In . SVG Version: 6.00 Build 0)  -->
<!DOCTYPE svg PUBLIC "-//W3C//DTD SVG 1.1//EN" "http://www.w3.org/Graphics/SVG/1.1/DTD/svg11.dtd">
<svg version="1.1" id="Capa_1" xmlns="http://www.w3.org/2000/svg" xmlns:xlink="http://www.w3.org/1999/xlink" x="0px" y="0px"
	 viewBox="0 0 461.62 461.62" style="enable-background:new 0 0 461.62 461.62;" xml:space="preserve">
<g>
	<polygon style="fill:#F4C647;" points="166.582,227.008 166.54,227.008 164.146,226.658 156.606,225.536 129.356,221.501 
		146.682,180.641 156.606,179.18 164.146,178.057 164.739,177.973 165.036,177.962 	"/>
	<polygon style="fill:#FCD983;" points="112.527,185.704 146.682,180.641 129.356,221.501 99.246,217.052 	"/>
	<polygon style="fill:#F4C647;" points="112.527,185.704 99.246,217.052 69.115,212.594 78.372,190.756 	"/>
	<polygon style="fill:#FCD983;" points="78.372,190.756 69.115,212.594 38.985,208.135 44.206,195.818 	"/>
	<polygon style="fill:#F4C647;" points="44.206,195.818 38.985,208.135 0,202.363 	"/>
	<path style="fill:#E29A3B;" d="M461.62,198.434v0.275c0,3.209-0.074,6.397-0.244,9.563c-0.879,18.195-4.279,35.733-9.849,52.265
		C407.331,186.339,307.45,159.015,275,151.909c-3.326-0.974-6.757-1.663-10.294-2.044c-0.074,0-0.106-0.011-0.106-0.011
		c0.688-3.506,0.752-7.234,0.074-11.046l-7.265-41.05l-2.701-15.23c49.914,7.191,123.965,25.111,185.317,72.335
		C453.55,165.274,461.556,181.362,461.62,198.434z"/>
	<path style="fill:#FBB03B;" d="M461.376,208.273c-0.879,18.195-4.279,35.733-9.849,52.265
		C407.331,186.339,307.45,159.015,275,151.909c-3.326-0.974-6.757-1.663-10.294-2.044c-0.074,0-0.106-0.011-0.106-0.011
		c0.688-3.506,0.752-7.234,0.074-11.046l-7.265-41.05c49.861,7.435,122.366,25.556,182.617,71.932
		C452.226,179.085,459.936,193.096,461.376,208.273z"/>
	<path style="fill:#CCCCCC;" d="M451.527,260.538c-25.788,76.518-98.134,131.633-183.358,131.633
		c-5.422,0-10.792-0.222-16.109-0.657c32.355-33.827,44.714-82.11,32.683-127.28c-0.201-0.72-0.402-1.451-0.604-2.171
		c5.994-2.902,11.417-6.789,16.066-11.438c10.718-10.718,17.348-25.524,17.348-41.876c-0.011-26.922-17.962-49.639-42.554-56.841
		c6.704,1.462,16.278,3.792,27.642,7.223C346.318,172.296,416.461,201.653,451.527,260.538z"/>
	<path style="fill:#E6E6E6;" d="M317.553,208.749c0,16.352-6.63,31.158-17.348,41.876c-4.649,4.649-10.072,8.536-16.066,11.438
		c-7.805,3.792-16.564,5.91-25.82,5.91h-0.011c-15.717,0-27.176,14.764-23.406,30.014c1.483,5.984,2.362,10.781,1.716,11.84
		c-4.003,6.587-9.595,11.904-16.109,15.558c-6.513,3.664-13.948,5.677-21.669,5.677h0c-19.162,0-34.695-15.534-34.695-34.695
		V165.984c0-9.095,7.373-16.469,16.469-16.469h0h40.192l-2.009,5.095c-3.257,8.259,1.802,17.444,10.524,19.105h0
		c3.251,0.614,6.439,0.699,9.489,0.307c12.878-1.62,23.342-11.523,25.788-24.168c0,0,0.032,0.011,0.106,0.011
		c0.657,0.117,4.342,0.741,10.294,2.044C299.592,159.11,317.543,181.828,317.553,208.749z M209.21,210.359
		c0-9.362-7.583-16.945-16.945-16.945v33.89C201.627,227.304,209.21,219.721,209.21,210.359z"/>
	<path style="fill:#B3B3B3;" d="M302.642,159.132c-11.364-3.431-20.938-5.761-27.642-7.223
		c24.592,7.202,42.543,29.919,42.554,56.841c0,16.352-6.63,31.158-17.348,41.876c-4.649,4.649-10.072,8.536-16.066,11.438
		c0.201,0.72,0.402,1.451,0.604,2.171c3.23-0.932,6.344-2.139,9.32-3.58c5.994-2.902,11.417-6.789,16.066-11.438
		c10.718-10.718,17.348-25.524,17.348-41.876C327.466,187.451,317.67,169.86,302.642,159.132z"/>
	<path style="fill:#999999;" d="M264.674,138.808c0.678,3.813,0.614,7.541-0.074,11.046c-2.446,12.645-12.91,22.548-25.788,24.168
		l13.577-104.573l2.319,13.08L264.674,138.808z"/>
	<path style="fill:#CCCCCC;" d="M252.389,69.449l-13.577,104.573c-3.05,0.392-6.238,0.307-9.489-0.307l-11.078-2.109
		c-2.97-0.565-4.692-3.693-3.583-6.505l6.146-15.585l26.805-67.95L252.389,69.449z"/>
	<path style="fill:#E29A3B;" d="M247.612,81.565l-6.386,16.193l-20.419,51.757h-40.192l-9.362-52.668l-2.944-16.575
		C168.308,80.273,199.678,75.517,247.612,81.565z"/>
	<path style="fill:#FBB03B;" d="M241.226,97.758l-20.419,51.757h-40.192l-9.362-52.668
		C179.609,95.915,205.238,93.797,241.226,97.758z"/>
	<path style="fill:#EA535E;" d="M192.265,193.414c9.362,0,16.945,7.583,16.945,16.945c0,9.362-7.583,16.945-16.945,16.945V193.414z"
		/>
	<polygon style="fill:#E2B23B;" points="164.146,178.057 164.146,226.658 156.606,225.536 156.606,179.18 	"/>
	<polygon style="fill:#E29A3B;" points="184.145,89.271 189.794,125.28 196.166,95.465 	"/>
	<polygon style="fill:#E29A3B;" points="194.648,82.445 200.297,118.454 206.669,88.639 	"/>
	<polygon style="fill:#E29A3B;" points="349.603,114.541 355.251,150.55 361.624,120.735 	"/>
	<polygon style="fill:#E29A3B;" points="377.609,121.438 372.893,169.261 387.59,132.033 	"/>
	<polygon style="fill:#E29A3B;" points="437.722,161.602 433.006,209.426 447.703,172.198 	"/>
</g>
<g>
</g>
<g>
</g>
<g>
</g>
<g>
</g>
<g>
</g>
<g>
</g>
<g>
</g>
<g>
</g>
<g>
</g>
<g>
</g>
<g>
</g>
<g>
</g>
<g>
</g>
<g>
</g>
<g>
</g>
</svg>
